<svg xmlns="http://www.w3.org/2000/svg" role="img" aria-label="Weekly cadence" viewBox="0 0 720 224" width="720" height="224" fill="none"><title>Weekly cadence</title><desc>Contribution share by day of week for the returned window, on UTC day boundaries. Monday 10.6%, Tuesday 8.6%, Wednesday 11.2%, Thursday 15.6%, Friday 18.2%, Saturday 22.7%, Sunday 13.3%.</desc><path d="M0 0H698L720 22V224H0Z" fill="#121310"/><g aria-hidden="true" opacity="0.18"><path d="M0 -8l4 0l-4 11l0 -11Z" fill="#d9ff4a"/><path d="M0 3l4 0l-4 11l0 -11Z" fill="#d9ff4a"/><path d="M0 14l4 0l-4 11l0 -11Z" fill="#d9ff4a"/><path d="M0 25l4 0l-4 11l0 -11Z" fill="#d9ff4a"/><path d="M0 36l4 0l-4 11l0 -11Z" fill="#d9ff4a"/><path d="M0 47l4 0l-4 11l0 -11Z" fill="#d9ff4a"/><path d="M0 58l4 0l-4 11l0 -11Z" fill="#d9ff4a"/><path d="M0 69l4 0l-4 11l0 -11Z" fill="#d9ff4a"/><path d="M0 80l4 0l-4 11l0 -11Z" fill="#d9ff4a"/><path d="M0 91l4 0l-4 11l0 -11Z" fill="#d9ff4a"/><path d="M0 102l4 0l-4 11l0 -11Z" fill="#d9ff4a"/><path d="M0 113l4 0l-4 11l0 -11Z" fill="#d9ff4a"/><path d="M0 124l4 0l-4 11l0 -11Z" fill="#d9ff4a"/><path d="M0 135l4 0l-4 11l0 -11Z" fill="#d9ff4a"/><path d="M0 146l4 0l-4 11l0 -11Z" fill="#d9ff4a"/><path d="M0 157l4 0l-4 11l0 -11Z" fill="#d9ff4a"/><path d="M0 168l4 0l-4 11l0 -11Z" fill="#d9ff4a"/><path d="M0 179l4 0l-4 11l0 -11Z" fill="#d9ff4a"/><path d="M0 190l4 0l-4 11l0 -11Z" fill="#d9ff4a"/><path d="M0 201l4 0l-4 11l0 -11Z" fill="#d9ff4a"/><path d="M0 212l4 0l-4 11l0 -11Z" fill="#d9ff4a"/><path d="M0 223l4 0l-4 11l0 -11Z" fill="#d9ff4a"/></g><style>
@keyframes card-enter{from{transform:translateY(4px)}to{transform:translateY(0)}}
.card-enter{transform-box:fill-box;transform-origin:center;animation:card-enter .38s ease-out .06s}
@media (prefers-reduced-motion:reduce){.card-enter{animation:none!important}}
</style><g class="card-enter"><rect x="16" y="16" width="688" height="192" rx="14" fill="#191a15" stroke="#2a2c24"/><text x="34" y="48" fill="#d9ff4a" font-family="ui-monospace,SFMono-Regular,'SF Mono',Menlo,Consolas,monospace" font-size="10" font-weight="500" letter-spacing="1.30" text-anchor="start">01 // WEEKLY CADENCE</text><text x="686" y="50" fill="#edf0e2" font-family="ui-sans-serif,system-ui,-apple-system,'Segoe UI',Helvetica,Arial,sans-serif" font-size="12" font-weight="600" text-anchor="end">Saturday carries 22.7%</text><rect x="34.00" y="122.78" width="81.14" height="39.22" rx="3" fill="#23261e"/><text x="74.57142857142857" y="115.7836853605244" fill="#9aa08c" font-family="ui-monospace,SFMono-Regular,'SF Mono',Menlo,Consolas,monospace" font-size="10" font-weight="550" letter-spacing="0.40" text-anchor="middle">10.6%</text><text x="74.57142857142857" y="178" fill="#9aa08c" font-family="ui-monospace,SFMono-Regular,'SF Mono',Menlo,Consolas,monospace" font-size="10" font-weight="550" letter-spacing="1.30" text-anchor="middle">MON</text><rect x="129.14" y="130.25" width="81.14" height="31.75" rx="3" fill="#23261e"/><text x="169.71428571428572" y="123.2476329206118" fill="#9aa08c" font-family="ui-monospace,SFMono-Regular,'SF Mono',Menlo,Consolas,monospace" font-size="10" font-weight="550" letter-spacing="0.40" text-anchor="middle">8.6%</text><text x="169.71428571428572" y="178" fill="#9aa08c" font-family="ui-monospace,SFMono-Regular,'SF Mono',Menlo,Consolas,monospace" font-size="10" font-weight="550" letter-spacing="1.30" text-anchor="middle">TUE</text><rect x="224.29" y="120.64" width="81.14" height="41.36" rx="3" fill="#23261e"/><text x="264.85714285714283" y="113.64238892935177" fill="#9aa08c" font-family="ui-monospace,SFMono-Regular,'SF Mono',Menlo,Consolas,monospace" font-size="10" font-weight="550" letter-spacing="0.40" text-anchor="middle">11.2%</text><text x="264.85714285714283" y="178" fill="#9aa08c" font-family="ui-monospace,SFMono-Regular,'SF Mono',Menlo,Consolas,monospace" font-size="10" font-weight="550" letter-spacing="1.30" text-anchor="middle">WED</text><rect x="319.43" y="104.32" width="81.14" height="57.68" rx="3" fill="#23261e"/><text x="360" y="97.32483612527312" fill="#9aa08c" font-family="ui-monospace,SFMono-Regular,'SF Mono',Menlo,Consolas,monospace" font-size="10" font-weight="550" letter-spacing="0.40" text-anchor="middle">15.6%</text><text x="360" y="178" fill="#9aa08c" font-family="ui-monospace,SFMono-Regular,'SF Mono',Menlo,Consolas,monospace" font-size="10" font-weight="550" letter-spacing="1.30" text-anchor="middle">THU</text><rect x="414.57" y="94.71" width="81.14" height="67.29" rx="3" fill="#23261e"/><text x="455.1428571428571" y="87.71085214857975" fill="#9aa08c" font-family="ui-monospace,SFMono-Regular,'SF Mono',Menlo,Consolas,monospace" font-size="10" font-weight="550" letter-spacing="0.40" text-anchor="middle">18.2%</text><text x="455.1428571428571" y="178" fill="#9aa08c" font-family="ui-monospace,SFMono-Regular,'SF Mono',Menlo,Consolas,monospace" font-size="10" font-weight="550" letter-spacing="1.30" text-anchor="middle">FRI</text><rect x="509.71" y="78.00" width="81.14" height="84.00" rx="3" fill="#ff7a45"/><text x="550.2857142857142" y="71" fill="#edf0e2" font-family="ui-monospace,SFMono-Regular,'SF Mono',Menlo,Consolas,monospace" font-size="10" font-weight="550" letter-spacing="0.40" text-anchor="middle">22.7%</text><text x="550.2857142857142" y="178" fill="#9aa08c" font-family="ui-monospace,SFMono-Regular,'SF Mono',Menlo,Consolas,monospace" font-size="10" font-weight="550" letter-spacing="1.30" text-anchor="middle">SAT</text><rect x="604.86" y="112.59" width="81.14" height="49.41" rx="3" fill="#23261e"/><text x="645.4285714285714" y="105.59286234522942" fill="#9aa08c" font-family="ui-monospace,SFMono-Regular,'SF Mono',Menlo,Consolas,monospace" font-size="10" font-weight="550" letter-spacing="0.40" text-anchor="middle">13.3%</text><text x="645.4285714285714" y="178" fill="#9aa08c" font-family="ui-monospace,SFMono-Regular,'SF Mono',Menlo,Consolas,monospace" font-size="10" font-weight="550" letter-spacing="1.30" text-anchor="middle">SUN</text><text x="34" y="198" fill="#9aa08c" font-family="ui-monospace,SFMono-Regular,'SF Mono',Menlo,Consolas,monospace" font-size="9.5" font-weight="550" letter-spacing="0.76" text-anchor="start">SHARE OF 42k CONTRIBUTIONS · UTC DAY BOUNDARIES · WINDOW-SCOPED</text></g></svg>