<svg xmlns="http://www.w3.org/2000/svg" role="img" aria-label="Personal contribution rhythm" viewBox="0 0 720 220" width="720" height="220" fill="none"><title>Personal contribution rhythm</title><desc>A personal consistency summary based on active-day density and current streak. Personal consistency score 78 out of 100, strong; this is not a GitHub rank. 70% active-day density (capped at 80%) + 30% current streak (capped at 30 days). Density 54.8 percent across 200 active days in a 365-day window. Current streak: 37 days · CLOSED; it is closed within the returned window. 7,441 recent contributions · +92.5% vs prior 28 days.</desc><path d="M0 0H698L720 22V220H0Z" fill="#121310"/><g aria-hidden="true" opacity="0.18"><path d="M0 -8l4 0l-4 11l0 -11Z" fill="#d9ff4a"/><path d="M0 3l4 0l-4 11l0 -11Z" fill="#d9ff4a"/><path d="M0 14l4 0l-4 11l0 -11Z" fill="#d9ff4a"/><path d="M0 25l4 0l-4 11l0 -11Z" fill="#d9ff4a"/><path d="M0 36l4 0l-4 11l0 -11Z" fill="#d9ff4a"/><path d="M0 47l4 0l-4 11l0 -11Z" fill="#d9ff4a"/><path d="M0 58l4 0l-4 11l0 -11Z" fill="#d9ff4a"/><path d="M0 69l4 0l-4 11l0 -11Z" fill="#d9ff4a"/><path d="M0 80l4 0l-4 11l0 -11Z" fill="#d9ff4a"/><path d="M0 91l4 0l-4 11l0 -11Z" fill="#d9ff4a"/><path d="M0 102l4 0l-4 11l0 -11Z" fill="#d9ff4a"/><path d="M0 113l4 0l-4 11l0 -11Z" fill="#d9ff4a"/><path d="M0 124l4 0l-4 11l0 -11Z" fill="#d9ff4a"/><path d="M0 135l4 0l-4 11l0 -11Z" fill="#d9ff4a"/><path d="M0 146l4 0l-4 11l0 -11Z" fill="#d9ff4a"/><path d="M0 157l4 0l-4 11l0 -11Z" fill="#d9ff4a"/><path d="M0 168l4 0l-4 11l0 -11Z" fill="#d9ff4a"/><path d="M0 179l4 0l-4 11l0 -11Z" fill="#d9ff4a"/><path d="M0 190l4 0l-4 11l0 -11Z" fill="#d9ff4a"/><path d="M0 201l4 0l-4 11l0 -11Z" fill="#d9ff4a"/><path d="M0 212l4 0l-4 11l0 -11Z" fill="#d9ff4a"/></g><style>
@keyframes card-enter{from{transform:translateY(4px)}to{transform:translateY(0)}}
.card-enter{transform-box:fill-box;transform-origin:center;animation:card-enter .38s ease-out .06s}
@media (prefers-reduced-motion:reduce){.card-enter{animation:none!important}}
</style><g class="card-enter"><rect x="16" y="16" width="688" height="188" rx="14" fill="#191a15" stroke="#2a2c24"/><text x="34" y="48" fill="#d9ff4a" font-family="ui-monospace,SFMono-Regular,'SF Mono',Menlo,Consolas,monospace" font-size="9" font-weight="500" letter-spacing="1.17" text-anchor="start">01 // PERSONAL CONSISTENCY</text><circle cx="88" cy="112" r="43" stroke="#121310" stroke-width="10"/><circle cx="88" cy="112" r="43" stroke="#ff7a45" stroke-width="10" stroke-linecap="round" stroke-dasharray="210.74 270.18" transform="rotate(-90 88 112)"/><text x="88" y="119" fill="#edf0e2" font-family="ui-sans-serif,system-ui,-apple-system,'Segoe UI',Helvetica,Arial,sans-serif" font-size="28" font-weight="800" text-anchor="middle">78</text><text x="88" y="136" fill="#9aa08c" font-family="ui-sans-serif,system-ui,-apple-system,'Segoe UI',Helvetica,Arial,sans-serif" font-size="10" font-weight="650" text-anchor="middle">/ 100</text><text x="166" y="88" fill="#ff7a45" font-family="ui-sans-serif,system-ui,-apple-system,'Segoe UI',Helvetica,Arial,sans-serif" font-size="11" font-weight="750" text-anchor="start">STRONG</text><text x="166" y="111" fill="#edf0e2" font-family="ui-sans-serif,system-ui,-apple-system,'Segoe UI',Helvetica,Arial,sans-serif" font-size="11" font-weight="600" text-anchor="start">54.8% density · 200 active days</text><text x="166" y="131" fill="#9aa08c" font-family="ui-sans-serif,system-ui,-apple-system,'Segoe UI',Helvetica,Arial,sans-serif" font-size="10" font-weight="550" text-anchor="start">365-day window · current 37 days · CLOSED</text><text x="166" y="151" fill="#9aa08c" font-family="ui-sans-serif,system-ui,-apple-system,'Segoe UI',Helvetica,Arial,sans-serif" font-size="9" font-weight="550" text-anchor="start">Streak is bounded to this window</text><line x1="370" y1="65" x2="692" y2="65" stroke="#2a2c24"/><text x="400" y="76" fill="#9aa08c" font-family="ui-sans-serif,system-ui,-apple-system,'Segoe UI',Helvetica,Arial,sans-serif" font-size="10" font-weight="700" text-anchor="start">WEEKLY RHYTHM</text><text x="400" y="93" fill="#edf0e2" font-family="ui-sans-serif,system-ui,-apple-system,'Segoe UI',Helvetica,Arial,sans-serif" font-size="9" font-weight="550" text-anchor="start">7,441 recent contributions · +92.5% vs prior 28 days</text><rect x="400.00" y="150.72" width="20.17" height="15.28" rx="3" fill="#ff7a45"/><rect x="424.17" y="154.30" width="20.17" height="11.70" rx="3" fill="#ff7a45"/><rect x="448.33" y="141.16" width="20.17" height="24.84" rx="3" fill="#ff7a45"/><rect x="472.50" y="150.99" width="20.17" height="15.01" rx="3" fill="#ff7a45"/><rect x="496.67" y="160.94" width="20.17" height="5.06" rx="3" fill="#ff7a45"/><rect x="520.83" y="147.91" width="20.17" height="18.09" rx="3" fill="#ff7a45"/><rect x="545.00" y="150.16" width="20.17" height="15.84" rx="3" fill="#ff7a45"/><rect x="569.17" y="118.00" width="20.17" height="48.00" rx="3" fill="#ff7a45"/><rect x="593.33" y="125.61" width="20.17" height="40.39" rx="3" fill="#ff7a45"/><rect x="617.50" y="122.88" width="20.17" height="43.12" rx="3" fill="#ff7a45"/><rect x="641.67" y="121.44" width="20.17" height="44.56" rx="3" fill="#ff7a45"/><rect x="665.83" y="126.62" width="20.17" height="39.38" rx="3" fill="#ff7a45"/><text x="34" y="209" fill="#9aa08c" font-family="ui-monospace,SFMono-Regular,'SF Mono',Menlo,Consolas,monospace" font-size="8.5" font-weight="500" letter-spacing="0.51" text-anchor="start">COMMITATLAS CONSISTENCY · NOT A GITHUB RANK</text></g></svg>