<svg xmlns="http://www.w3.org/2000/svg" role="img" aria-label="Contribution activity" viewBox="0 0 720 220" width="720" height="220" fill="none"><title>Contribution activity</title><desc>A compact contribution activity map with text labels for accessible status. Contributions by date, chronologically: 2024-10-11 2; 2024-10-12 0; 2024-10-13 0; 2024-10-14 0; 2024-10-15 0; 2024-10-16 4; 2024-10-17 8; 2024-10-18 15; 2024-10-19 0; 2024-10-20 0; 2024-10-21 2; 2024-10-22 36; 2024-10-23 3; 2024-10-24 0; 2024-10-25 0; 2024-10-26 0; 2024-10-27 0; 2024-10-28 0; 2024-10-29 0; 2024-10-30 1; 2024-10-31 0; 2024-11-01 0; 2024-11-02 0; 2024-11-03 0; 2024-11-04 0; 2024-11-05 6; 2024-11-06 10; 2024-11-07 0; 2024-11-08 0; 2024-11-09 0; 2024-11-10 0; 2024-11-11 7; 2024-11-12 11; 2024-11-13 18; 2024-11-14 6; 2024-11-15 13; 2024-11-16 0; 2024-11-17 0; 2024-11-18 49; 2024-11-19 18; 2024-11-20 0; 2024-11-21 2; 2024-11-22 0; 2024-11-23 0; 2024-11-24 0; 2024-11-25 15; 2024-11-26 1; 2024-11-27 59; 2024-11-28 0; 2024-11-29 0; 2024-11-30 0; 2024-12-01 0; 2024-12-02 0; 2024-12-03 2; 2024-12-04 0; 2024-12-05 0; 2024-12-06 0; 2024-12-07 0; 2024-12-08 0; 2024-12-09 8; 2024-12-10 1; 2024-12-11 1; 2024-12-12 19; 2024-12-13 72; 2024-12-14 0; 2024-12-15 0; 2024-12-16 0; 2024-12-17 0; 2024-12-18 0; 2024-12-19 0; 2024-12-20 0; 2024-12-21 0; 2024-12-22 0; 2024-12-23 0; 2024-12-24 0; 2024-12-25 0; 2024-12-26 0; 2024-12-27 0; 2024-12-28 0; 2024-12-29 0; 2024-12-30 0; 2024-12-31 0; 2025-01-01 0; 2025-01-02 0; 2025-01-03 0; 2025-01-04 0; 2025-01-05 0; 2025-01-06 0; 2025-01-07 0; 2025-01-08 0; 2025-01-09 0; 2025-01-10 0; 2025-01-11 0; 2025-01-12 0; 2025-01-13 0; 2025-01-14 0; 2025-01-15 0; 2025-01-16 0; 2025-01-17 0; 2025-01-18 0; 2025-01-19 0; 2025-01-20 0; 2025-01-21 0; 2025-01-22 0; 2025-01-23 0; 2025-01-24 0; 2025-01-25 0; 2025-01-26 0; 2025-01-27 0; 2025-01-28 0; 2025-01-29 0; 2025-01-30 0; 2025-01-31 0; 2025-02-01 0; 2025-02-02 0; 2025-02-03 0; 2025-02-04 0; 2025-02-05 0; 2025-02-06 0; 2025-02-07 0; 2025-02-08 0; 2025-02-09 0; 2025-02-10 0; 2025-02-11 0; 2025-02-12 0; 2025-02-13 0; 2025-02-14 0; 2025-02-15 0; 2025-02-16 0; 2025-02-17 0; 2025-02-18 0; 2025-02-19 0; 2025-02-20 0; 2025-02-21 0; 2025-02-22 0; 2025-02-23 0; 2025-02-24 0; 2025-02-25 0; 2025-02-26 0; 2025-02-27 0; 2025-02-28 0; 2025-03-01 0; 2025-03-02 0; 2025-03-03 0; 2025-03-04 0; 2025-03-05 0; 2025-03-06 0; 2025-03-07 0; 2025-03-08 0; 2025-03-09 0; 2025-03-10 0; 2025-03-11 0; 2025-03-12 0; 2025-03-13 6; 2025-03-14 36; 2025-03-15 2; 2025-03-16 2; 2025-03-17 17; 2025-03-18 50; 2025-03-19 2; 2025-03-20 39; 2025-03-21 9; 2025-03-22 2; 2025-03-23 3; 2025-03-24 52; 2025-03-25 7; 2025-03-26 17; 2025-03-27 45; 2025-03-28 13; 2025-03-29 2; 2025-03-30 2; 2025-03-31 17; 2025-04-01 27; 2025-04-02 135; 2025-04-03 2; 2025-04-04 14; 2025-04-05 135; 2025-04-06 10; 2025-04-07 40; 2025-04-08 80; 2025-04-09 3; 2025-04-10 4; 2025-04-11 1; 2025-04-12 81; 2025-04-13 58; 2025-04-14 15; 2025-04-15 2; 2025-04-16 5; 2025-04-17 2; 2025-04-18 2; 2025-04-19 1; 2025-04-20 10; 2025-04-21 1; 2025-04-22 1; 2025-04-23 1; 2025-04-24 2; 2025-04-25 2; 2025-04-26 1; 2025-04-27 1; 2025-04-28 15; 2025-04-29 9; 2025-04-30 2; 2025-05-01 1; 2025-05-02 1; 2025-05-03 1; 2025-05-04 2; 2025-05-05 1; 2025-05-06 1; 2025-05-07 2; 2025-05-08 2; 2025-05-09 1; 2025-05-10 1; 2025-05-11 5; 2025-05-12 7; 2025-05-13 9; 2025-05-14 47; 2025-05-15 2; 2025-05-16 8; 2025-05-17 2; 2025-05-18 5; 2025-05-19 20; 2025-05-20 4; 2025-05-21 41; 2025-05-22 18; 2025-05-23 16; 2025-05-24 4; 2025-05-25 4; 2025-05-26 4; 2025-05-27 5; 2025-05-28 16; 2025-05-29 63; 2025-05-30 6; 2025-05-31 26; 2025-06-01 5; 2025-06-02 20; 2025-06-03 50; 2025-06-04 4; 2025-06-05 35; 2025-06-06 83; 2025-06-07 2; 2025-06-08 3; 2025-06-09 133; 2025-06-10 1; 2025-06-11 2; 2025-06-12 12; 2025-06-13 1; 2025-06-14 2; 2025-06-15 1; 2025-06-16 235; 2025-06-17 7; 2025-06-18 53; 2025-06-19 12; 2025-06-20 2; 2025-06-21 1; 2025-06-22 49; 2025-06-23 240; 2025-06-24 64; 2025-06-25 27; 2025-06-26 6; 2025-06-27 9; 2025-06-28 2; 2025-06-29 2; 2025-06-30 8; 2025-07-01 3; 2025-07-02 3; 2025-07-03 1; 2025-07-04 3; 2025-07-05 7; 2025-07-06 33; 2025-07-07 104; 2025-07-08 5; 2025-07-09 48; 2025-07-10 48; 2025-07-11 40; 2025-07-12 2; 2025-07-13 3; 2025-07-14 3; 2025-07-15 3; 2025-07-16 10; 2025-07-17 6; 2025-07-18 18; 2025-07-19 2; 2025-07-20 1; 2025-07-21 2; 2025-07-22 2; 2025-07-23 1; 2025-07-24 2; 2025-07-25 1; 2025-07-26 2; 2025-07-27 2; 2025-07-28 2; 2025-07-29 1; 2025-07-30 3; 2025-07-31 2; 2025-08-01 1; 2025-08-02 2; 2025-08-03 1; 2025-08-04 1; 2025-08-05 1; 2025-08-06 2; 2025-08-07 1; 2025-08-08 1; 2025-08-09 1; 2025-08-10 2; 2025-08-11 1; 2025-08-12 2; 2025-08-13 1; 2025-08-14 2; 2025-08-15 1; 2025-08-16 1; 2025-08-17 1; 2025-08-18 2; 2025-08-19 2; 2025-08-20 2; 2025-08-21 1; 2025-08-22 2; 2025-08-23 2; 2025-08-24 1; 2025-08-25 2; 2025-08-26 1; 2025-08-27 2; 2025-08-28 1; 2025-08-29 2; 2025-08-30 2; 2025-08-31 2; 2025-09-01 2; 2025-09-02 2; 2025-09-03 2; 2025-09-04 2; 2025-09-05 2; 2025-09-06 2; 2025-09-07 1; 2025-09-08 2; 2025-09-09 1; 2025-09-10 2; 2025-09-11 1; 2025-09-12 1; 2025-09-13 1; 2025-09-14 1; 2025-09-15 2; 2025-09-16 1; 2025-09-17 1; 2025-09-18 2; 2025-09-19 2; 2025-09-20 1; 2025-09-21 1; 2025-09-22 2; 2025-09-23 2; 2025-09-24 2; 2025-09-25 2; 2025-09-26 2; 2025-09-27 2; 2025-09-28 2; 2025-09-29 1; 2025-09-30 2; 2025-10-01 2; 2025-10-02 2; 2025-10-03 1; 2025-10-04 2; 2025-10-05 1; 2025-10-06 2; 2025-10-07 2; 2025-10-08 2; 2025-10-09 1; 2025-10-10 1; 2025-10-11 1; 2025-10-12 1; 2025-10-13 1; 2025-10-14 2; 2025-10-15 1; 2025-10-16 2; 2025-10-17 1; 2025-10-18 2; 2025-10-19 2; 2025-10-20 4; 2025-10-21 1; 2025-10-22 2; 2025-10-23 2; 2025-10-24 1; 2025-10-25 1; 2025-10-26 1; 2025-10-27 2; 2025-10-28 1; 2025-10-29 1; 2025-10-30 2; 2025-10-31 2; 2025-11-01 2; 2025-11-02 2; 2025-11-03 1; 2025-11-04 28; 2025-11-05 71; 2025-11-06 2; 2025-11-07 2; 2025-11-08 7; 2025-11-09 7; 2025-11-10 138; 2025-11-11 119; 2025-11-12 134; 2025-11-13 2; 2025-11-14 2; 2025-11-15 2; 2025-11-16 2; 2025-11-17 2; 2025-11-18 398; 2025-11-19 135; 2025-11-20 2; 2025-11-21 1; 2025-11-22 1; 2025-11-23 1; 2025-11-24 2; 2025-11-25 1; 2025-11-26 1; 2025-11-27 2; 2025-11-28 2; 2025-11-29 2; 2025-11-30 1; 2025-12-01 2; 2025-12-02 2; 2025-12-03 2; 2025-12-04 2; 2025-12-05 1; 2025-12-06 1; 2025-12-07 1; 2025-12-08 2; 2025-12-09 1; 2025-12-10 1; 2025-12-11 1; 2025-12-12 2; 2025-12-13 1; 2025-12-14 1; 2025-12-15 1; 2025-12-16 2; 2025-12-17 2; 2025-12-18 2; 2025-12-19 2; 2025-12-20 2; 2025-12-21 2; 2025-12-22 2; 2025-12-23 1; 2025-12-24 1; 2025-12-25 2; 2025-12-26 2; 2025-12-27 2; 2025-12-28 1; 2025-12-29 1; 2025-12-30 1; 2025-12-31 2; 2026-01-01 1; 2026-01-02 1; 2026-01-03 1; 2026-01-04 1; 2026-01-05 1; 2026-01-06 2; 2026-01-07 1; 2026-01-08 1; 2026-01-09 1; 2026-01-10 2; 2026-01-11 2; 2026-01-12 2; 2026-01-13 1; 2026-01-14 1; 2026-01-15 2; 2026-01-16 1; 2026-01-17 1; 2026-01-18 7; 2026-01-19 56; 2026-01-20 107; 2026-01-21 2; 2026-01-22 6; 2026-01-23 7; 2026-01-24 7; 2026-01-25 7; 2026-01-26 7; 2026-01-27 7; 2026-01-28 6; 2026-01-29 7; 2026-01-30 6; 2026-01-31 6; 2026-02-01 6; 2026-02-02 6; 2026-02-03 6; 2026-02-04 7; 2026-02-05 7; 2026-02-06 14; 2026-02-07 6; 2026-02-08 14; 2026-02-09 7; 2026-02-10 5; 2026-02-11 156; 2026-02-12 359; 2026-02-13 292; 2026-02-14 3; 2026-02-15 11; 2026-02-16 127; 2026-02-17 93; 2026-02-18 244; 2026-02-19 23; 2026-02-20 129; 2026-02-21 91; 2026-02-22 274; 2026-02-23 292; 2026-02-24 142; 2026-02-25 210; 2026-02-26 59; 2026-02-27 14; 2026-02-28 3; 2026-03-01 21; 2026-03-02 155; 2026-03-03 72; 2026-03-04 95; 2026-03-05 15; 2026-03-06 132; 2026-03-07 105; 2026-03-08 28; 2026-03-09 56; 2026-03-10 101; 2026-03-11 50; 2026-03-12 1; 2026-03-13 2; 2026-03-14 1; 2026-03-15 10; 2026-03-16 3; 2026-03-17 67; 2026-03-18 45; 2026-03-19 141; 2026-03-20 72; 2026-03-21 9; 2026-03-22 2; 2026-03-23 9; 2026-03-24 83; 2026-03-25 24; 2026-03-26 92; 2026-03-27 231; 2026-03-28 399; 2026-03-29 879; 2026-03-30 150; 2026-03-31 208; 2026-04-01 152; 2026-04-02 39; 2026-04-03 355; 2026-04-04 414; 2026-04-05 60; 2026-04-06 1; 2026-04-07 15; 2026-04-08 107; 2026-04-09 484; 2026-04-10 139; 2026-04-11 45; 2026-04-12 185; 2026-04-13 108; 2026-04-14 10; 2026-04-15 82; 2026-04-16 344; 2026-04-17 1; 2026-04-18 1; 2026-04-19 2; 2026-04-20 9; 2026-04-21 8; 2026-04-22 168; 2026-04-23 262; 2026-04-24 163; 2026-04-25 709; 2026-04-26 64; 2026-04-27 115; 2026-04-28 9; 2026-04-29 54; 2026-04-30 77; 2026-05-01 96; 2026-05-02 158; 2026-05-03 66; 2026-05-04 31; 2026-05-05 48; 2026-05-06 10; 2026-05-07 1; 2026-05-08 60; 2026-05-09 147; 2026-05-10 46; 2026-05-11 30; 2026-05-12 42; 2026-05-13 7; 2026-05-14 39; 2026-05-15 279; 2026-05-16 1,218; 2026-05-17 318; 2026-05-18 22; 2026-05-19 20; 2026-05-20 26; 2026-05-21 5; 2026-05-22 1; 2026-05-23 490; 2026-05-24 18; 2026-05-25 11; 2026-05-26 2; 2026-05-27 11; 2026-05-28 9; 2026-05-29 346; 2026-05-30 229; 2026-05-31 208; 2026-06-01 2; 2026-06-02 1; 2026-06-03 13; 2026-06-04 304; 2026-06-05 370; 2026-06-06 233; 2026-06-07 24; 2026-06-08 24; 2026-06-09 3; 2026-06-10 3; 2026-06-11 63; 2026-06-12 5; 2026-06-13 329; 2026-06-14 177; 2026-06-15 7; 2026-06-16 2; 2026-06-17 30; 2026-06-18 11; 2026-06-19 264; 2026-06-20 424; 2026-06-21 25; 2026-06-22 127; 2026-06-23 132; 2026-06-24 55; 2026-06-25 117; 2026-06-26 152; 2026-06-27 338; 2026-06-28 12; 2026-06-29 2; 2026-06-30 74; 2026-07-01 6; 2026-07-02 114; 2026-07-03 139; 2026-07-04 17; 2026-07-05 11; 2026-07-06 70; 2026-07-07 27; 2026-07-08 12; 2026-07-09 7; 2026-07-10 18; 2026-07-11 146; 2026-07-12 79; 2026-07-13 388; 2026-07-14 195; 2026-07-15 2; 2026-07-16 2; 2026-07-17 419; 2026-07-18 182; 2026-07-19 24; 2026-07-20 31; 2026-07-21 10; 2026-07-22 54; 2026-07-23 33; 2026-07-24 382; 2026-07-25 694; 2026-07-26 225; 2026-07-27 485; 2026-07-28 8; 2026-07-29 115; 2026-07-30 255; 2026-07-31 329; 2026-08-01 193; 2026-08-02 370; 2026-08-03 161; 2026-08-04 349; 2026-08-05 162; 2026-08-06 278; 2026-08-07 375; 2026-08-08 209; 2026-08-09 445; 2026-08-10 327; 2026-08-11 56; 2026-08-12 361; 2026-08-13 201; 2026-08-14 145; 2026-08-15 294; 2026-08-16 219; 2026-08-17 27; 2026-08-18 503; 2026-08-19 387; 2026-08-20 447; 2026-08-21 170; 2026-08-22 218; 2026-08-23 327; 2026-08-24 506; 2026-08-25 51; 2026-08-26 287; 2026-08-27 339; 2026-08-28 357; 2026-08-29 429; 2026-08-30 676; 2026-08-31 111; 2026-09-01 27; 2026-09-02 339; 2026-09-03 583; 2026-09-04 766; 2026-09-05 755; 2026-09-06 322; 2026-09-07 324; 2026-09-08 410; 2026-09-09 557; 2026-09-10 1,274; 2026-09-11 491; 2026-09-12 932; 2026-09-13 628; 2026-09-14 790; 2026-09-15 420; 2026-09-16 795; 2026-09-17 1,262; 2026-09-18 1,342; 2026-09-19 433; 2026-09-20 774; 2026-09-21 1,315; 2026-09-22 1,064; 2026-09-23 1,439; 2026-09-24 852; 2026-09-25 1,839; 2026-09-26 771; 2026-09-27 2,501; 2026-09-28 1,016; 2026-09-29 1,177; 2026-09-30 694; 2026-10-01 1,325; 2026-10-02 1,123; 2026-10-03 1,059; 2026-10-04 936; 2026-10-05 421; 2026-10-06 695; 2026-10-07 576; 2026-10-08 1,340; 2026-10-09 508; 2026-10-10 380</desc><path d="M0 0H698L720 22V220H0Z" fill="#dfe4c9"/><g aria-hidden="true" opacity="0.18"><path d="M0 -8l4 0l-4 11l0 -11Z" fill="#55651a"/><path d="M0 3l4 0l-4 11l0 -11Z" fill="#55651a"/><path d="M0 14l4 0l-4 11l0 -11Z" fill="#55651a"/><path d="M0 25l4 0l-4 11l0 -11Z" fill="#55651a"/><path d="M0 36l4 0l-4 11l0 -11Z" fill="#55651a"/><path d="M0 47l4 0l-4 11l0 -11Z" fill="#55651a"/><path d="M0 58l4 0l-4 11l0 -11Z" fill="#55651a"/><path d="M0 69l4 0l-4 11l0 -11Z" fill="#55651a"/><path d="M0 80l4 0l-4 11l0 -11Z" fill="#55651a"/><path d="M0 91l4 0l-4 11l0 -11Z" fill="#55651a"/><path d="M0 102l4 0l-4 11l0 -11Z" fill="#55651a"/><path d="M0 113l4 0l-4 11l0 -11Z" fill="#55651a"/><path d="M0 124l4 0l-4 11l0 -11Z" fill="#55651a"/><path d="M0 135l4 0l-4 11l0 -11Z" fill="#55651a"/><path d="M0 146l4 0l-4 11l0 -11Z" fill="#55651a"/><path d="M0 157l4 0l-4 11l0 -11Z" fill="#55651a"/><path d="M0 168l4 0l-4 11l0 -11Z" fill="#55651a"/><path d="M0 179l4 0l-4 11l0 -11Z" fill="#55651a"/><path d="M0 190l4 0l-4 11l0 -11Z" fill="#55651a"/><path d="M0 201l4 0l-4 11l0 -11Z" fill="#55651a"/><path d="M0 212l4 0l-4 11l0 -11Z" fill="#55651a"/></g><style>
@keyframes card-enter{from{transform:translateY(4px)}to{transform:translateY(0)}}
.card-enter{transform-box:fill-box;transform-origin:center;animation:card-enter .38s ease-out .06s}
@media (prefers-reduced-motion:reduce){.card-enter{animation:none!important}}
</style><g class="card-enter"><rect x="16" y="16" width="688" height="188" rx="14" fill="#e8ecd6" stroke="#c2c9a8"/><text x="34" y="48" fill="#55651a" font-family="ui-monospace,SFMono-Regular,'SF Mono',Menlo,Consolas,monospace" font-size="10" font-weight="500" letter-spacing="1.30" text-anchor="start">01 // 2024-10-11 → 2026-10-10</text><text x="686" y="50" fill="#23261c" font-family="ui-sans-serif,system-ui,-apple-system,'Segoe UI',Helvetica,Arial,sans-serif" font-size="12" font-weight="600" text-anchor="end">70k contributions</text><g aria-hidden="true"><path fill="#f0a878" d="M40 101h5v5H40"/><path fill="#c9cfb2" d="M40 108h5v5H40"/><path fill="#c9cfb2" d="M46 66h5v5H46"/><path fill="#c9cfb2" d="M46 73h5v5H46"/><path fill="#c9cfb2" d="M46 80h5v5H46"/><path fill="#f0a878" d="M46 87h5v5H46"/><path fill="#f0a878" d="M46 94h5v5H46"/><path fill="#f0a878" d="M46 101h5v5H46"/><path fill="#c9cfb2" d="M46 108h5v5H46"/><path fill="#c9cfb2" d="M52 66h5v5H52"/><path fill="#f0a878" d="M52 73h5v5H52"/><path fill="#dd7440" d="M52 80h5v5H52"/><path fill="#f0a878" d="M52 87h5v5H52"/><path fill="#c9cfb2" d="M52 94h5v5H52"/><path fill="#c9cfb2" d="M52 101h5v5H52"/><path fill="#c9cfb2" d="M52 108h5v5H52"/><path fill="#c9cfb2" d="M58 66h5v5H58"/><path fill="#c9cfb2" d="M58 73h5v5H58"/><path fill="#c9cfb2" d="M58 80h5v5H58"/><path fill="#f0a878" d="M58 87h5v5H58"/><path fill="#c9cfb2" d="M58 94h5v5H58"/><path fill="#c9cfb2" d="M58 101h5v5H58"/><path fill="#c9cfb2" d="M58 108h5v5H58"/><path fill="#c9cfb2" d="M64 66h5v5H64"/><path fill="#c9cfb2" d="M64 73h5v5H64"/><path fill="#f0a878" d="M64 80h5v5H64"/><path fill="#f0a878" d="M64 87h5v5H64"/><path fill="#c9cfb2" d="M64 94h5v5H64"/><path fill="#c9cfb2" d="M64 101h5v5H64"/><path fill="#c9cfb2" d="M64 108h5v5H64"/><path fill="#c9cfb2" d="M70 66h5v5H70"/><path fill="#f0a878" d="M70 73h5v5H70"/><path fill="#f0a878" d="M70 80h5v5H70"/><path fill="#f0a878" d="M70 87h5v5H70"/><path fill="#f0a878" d="M70 94h5v5H70"/><path fill="#f0a878" d="M70 101h5v5H70"/><path fill="#c9cfb2" d="M70 108h5v5H70"/><path fill="#c9cfb2" d="M76 66h5v5H76"/><path fill="#b84f1e" d="M76 73h5v5H76"/><path fill="#f0a878" d="M76 80h5v5H76"/><path fill="#c9cfb2" d="M76 87h5v5H76"/><path fill="#f0a878" d="M76 94h5v5H76"/><path fill="#c9cfb2" d="M76 101h5v5H76"/><path fill="#c9cfb2" d="M76 108h5v5H76"/><path fill="#c9cfb2" d="M82 66h5v5H82"/><path fill="#f0a878" d="M82 73h5v5H82"/><path fill="#f0a878" d="M82 80h5v5H82"/><path fill="#82300a" d="M82 87h5v5H82"/><path fill="#c9cfb2" d="M82 94h5v5H82"/><path fill="#c9cfb2" d="M82 101h5v5H82"/><path fill="#c9cfb2" d="M82 108h5v5H82"/><path fill="#c9cfb2" d="M88 66h5v5H88"/><path fill="#c9cfb2" d="M88 73h5v5H88"/><path fill="#f0a878" d="M88 80h5v5H88"/><path fill="#c9cfb2" d="M88 87h5v5H88"/><path fill="#c9cfb2" d="M88 94h5v5H88"/><path fill="#c9cfb2" d="M88 101h5v5H88"/><path fill="#c9cfb2" d="M88 108h5v5H88"/><path fill="#c9cfb2" d="M94 66h5v5H94"/><path fill="#f0a878" d="M94 73h5v5H94"/><path fill="#f0a878" d="M94 80h5v5H94"/><path fill="#f0a878" d="M94 87h5v5H94"/><path fill="#dd7440" d="M94 94h5v5H94"/><path fill="#82300a" d="M94 101h5v5H94"/><path fill="#c9cfb2" d="M94 108h5v5H94"/><path fill="#c9cfb2" d="M100 66h5v5H100"/><path fill="#c9cfb2" d="M100 73h5v5H100"/><path fill="#c9cfb2" d="M100 80h5v5H100"/><path fill="#c9cfb2" d="M100 87h5v5H100"/><path fill="#c9cfb2" d="M100 94h5v5H100"/><path fill="#c9cfb2" d="M100 101h5v5H100"/><path fill="#c9cfb2" d="M100 108h5v5H100"/><path fill="#c9cfb2" d="M106 66h5v5H106"/><path fill="#c9cfb2" d="M106 73h5v5H106"/><path fill="#c9cfb2" d="M106 80h5v5H106"/><path fill="#c9cfb2" d="M106 87h5v5H106"/><path fill="#c9cfb2" d="M106 94h5v5H106"/><path fill="#c9cfb2" d="M106 101h5v5H106"/><path fill="#c9cfb2" d="M106 108h5v5H106"/><path fill="#c9cfb2" d="M112 66h5v5H112"/><path fill="#c9cfb2" d="M112 73h5v5H112"/><path fill="#c9cfb2" d="M112 80h5v5H112"/><path fill="#c9cfb2" d="M112 87h5v5H112"/><path fill="#c9cfb2" d="M112 94h5v5H112"/><path fill="#c9cfb2" d="M112 101h5v5H112"/><path fill="#c9cfb2" d="M112 108h5v5H112"/><path fill="#c9cfb2" d="M118 66h5v5H118"/><path fill="#c9cfb2" d="M118 73h5v5H118"/><path fill="#c9cfb2" d="M118 80h5v5H118"/><path fill="#c9cfb2" d="M118 87h5v5H118"/><path fill="#c9cfb2" d="M118 94h5v5H118"/><path fill="#c9cfb2" d="M118 101h5v5H118"/><path fill="#c9cfb2" d="M118 108h5v5H118"/><path fill="#c9cfb2" d="M124 66h5v5H124"/><path fill="#c9cfb2" d="M124 73h5v5H124"/><path fill="#c9cfb2" d="M124 80h5v5H124"/><path fill="#c9cfb2" d="M124 87h5v5H124"/><path fill="#c9cfb2" d="M124 94h5v5H124"/><path fill="#c9cfb2" d="M124 101h5v5H124"/><path fill="#c9cfb2" d="M124 108h5v5H124"/><path fill="#c9cfb2" d="M130 66h5v5H130"/><path fill="#c9cfb2" d="M130 73h5v5H130"/><path fill="#c9cfb2" d="M130 80h5v5H130"/><path fill="#c9cfb2" d="M130 87h5v5H130"/><path fill="#c9cfb2" d="M130 94h5v5H130"/><path fill="#c9cfb2" d="M130 101h5v5H130"/><path fill="#c9cfb2" d="M130 108h5v5H130"/><path fill="#c9cfb2" d="M136 66h5v5H136"/><path fill="#c9cfb2" d="M136 73h5v5H136"/><path fill="#c9cfb2" d="M136 80h5v5H136"/><path fill="#c9cfb2" d="M136 87h5v5H136"/><path fill="#c9cfb2" d="M136 94h5v5H136"/><path fill="#c9cfb2" d="M136 101h5v5H136"/><path fill="#c9cfb2" d="M136 108h5v5H136"/><path fill="#c9cfb2" d="M142 66h5v5H142"/><path fill="#c9cfb2" d="M142 73h5v5H142"/><path fill="#c9cfb2" d="M142 80h5v5H142"/><path fill="#c9cfb2" d="M142 87h5v5H142"/><path fill="#c9cfb2" d="M142 94h5v5H142"/><path fill="#c9cfb2" d="M142 101h5v5H142"/><path fill="#c9cfb2" d="M142 108h5v5H142"/><path fill="#c9cfb2" d="M148 66h5v5H148"/><path fill="#c9cfb2" d="M148 73h5v5H148"/><path fill="#c9cfb2" d="M148 80h5v5H148"/><path fill="#c9cfb2" d="M148 87h5v5H148"/><path fill="#c9cfb2" d="M148 94h5v5H148"/><path fill="#c9cfb2" d="M148 101h5v5H148"/><path fill="#c9cfb2" d="M148 108h5v5H148"/><path fill="#c9cfb2" d="M154 66h5v5H154"/><path fill="#c9cfb2" d="M154 73h5v5H154"/><path fill="#c9cfb2" d="M154 80h5v5H154"/><path fill="#c9cfb2" d="M154 87h5v5H154"/><path fill="#c9cfb2" d="M154 94h5v5H154"/><path fill="#c9cfb2" d="M154 101h5v5H154"/><path fill="#c9cfb2" d="M154 108h5v5H154"/><path fill="#c9cfb2" d="M160 66h5v5H160"/><path fill="#c9cfb2" d="M160 73h5v5H160"/><path fill="#c9cfb2" d="M160 80h5v5H160"/><path fill="#c9cfb2" d="M160 87h5v5H160"/><path fill="#c9cfb2" d="M160 94h5v5H160"/><path fill="#c9cfb2" d="M160 101h5v5H160"/><path fill="#c9cfb2" d="M160 108h5v5H160"/><path fill="#c9cfb2" d="M166 66h5v5H166"/><path fill="#c9cfb2" d="M166 73h5v5H166"/><path fill="#c9cfb2" d="M166 80h5v5H166"/><path fill="#c9cfb2" d="M166 87h5v5H166"/><path fill="#c9cfb2" d="M166 94h5v5H166"/><path fill="#c9cfb2" d="M166 101h5v5H166"/><path fill="#c9cfb2" d="M166 108h5v5H166"/><path fill="#c9cfb2" d="M172 66h5v5H172"/><path fill="#c9cfb2" d="M172 73h5v5H172"/><path fill="#c9cfb2" d="M172 80h5v5H172"/><path fill="#c9cfb2" d="M172 87h5v5H172"/><path fill="#f0a878" d="M172 94h5v5H172"/><path fill="#dd7440" d="M172 101h5v5H172"/><path fill="#f0a878" d="M172 108h5v5H172"/><path fill="#f0a878" d="M178 66h5v5H178"/><path fill="#f0a878" d="M178 73h5v5H178"/><path fill="#dd7440" d="M178 80h5v5H178"/><path fill="#f0a878" d="M178 87h5v5H178"/><path fill="#dd7440" d="M178 94h5v5H178"/><path fill="#f0a878" d="M178 101h5v5H178"/><path fill="#f0a878" d="M178 108h5v5H178"/><path fill="#f0a878" d="M184 66h5v5H184"/><path fill="#dd7440" d="M184 73h5v5H184"/><path fill="#f0a878" d="M184 80h5v5H184"/><path fill="#f0a878" d="M184 87h5v5H184"/><path fill="#dd7440" d="M184 94h5v5H184"/><path fill="#f0a878" d="M184 101h5v5H184"/><path fill="#f0a878" d="M184 108h5v5H184"/><path fill="#f0a878" d="M190 66h5v5H190"/><path fill="#f0a878" d="M190 73h5v5H190"/><path fill="#f0a878" d="M190 80h5v5H190"/><path fill="#82300a" d="M190 87h5v5H190"/><path fill="#f0a878" d="M190 94h5v5H190"/><path fill="#f0a878" d="M190 101h5v5H190"/><path fill="#82300a" d="M190 108h5v5H190"/><path fill="#f0a878" d="M196 66h5v5H196"/><path fill="#dd7440" d="M196 73h5v5H196"/><path fill="#b84f1e" d="M196 80h5v5H196"/><path fill="#f0a878" d="M196 87h5v5H196"/><path fill="#f0a878" d="M196 94h5v5H196"/><path fill="#f0a878" d="M196 101h5v5H196"/><path fill="#b84f1e" d="M196 108h5v5H196"/><path fill="#dd7440" d="M202 66h5v5H202"/><path fill="#f0a878" d="M202 73h5v5H202"/><path fill="#f0a878" d="M202 80h5v5H202"/><path fill="#f0a878" d="M202 87h5v5H202"/><path fill="#f0a878" d="M202 94h5v5H202"/><path fill="#f0a878" d="M202 101h5v5H202"/><path fill="#f0a878" d="M202 108h5v5H202"/><path fill="#f0a878" d="M208 66h5v5H208"/><path fill="#f0a878" d="M208 73h5v5H208"/><path fill="#f0a878" d="M208 80h5v5H208"/><path fill="#f0a878" d="M208 87h5v5H208"/><path fill="#f0a878" d="M208 94h5v5H208"/><path fill="#f0a878" d="M208 101h5v5H208"/><path fill="#f0a878" d="M208 108h5v5H208"/><path fill="#f0a878" d="M214 66h5v5H214"/><path fill="#f0a878" d="M214 73h5v5H214"/><path fill="#f0a878" d="M214 80h5v5H214"/><path fill="#f0a878" d="M214 87h5v5H214"/><path fill="#f0a878" d="M214 94h5v5H214"/><path fill="#f0a878" d="M214 101h5v5H214"/><path fill="#f0a878" d="M214 108h5v5H214"/><path fill="#f0a878" d="M220 66h5v5H220"/><path fill="#f0a878" d="M220 73h5v5H220"/><path fill="#f0a878" d="M220 80h5v5H220"/><path fill="#f0a878" d="M220 87h5v5H220"/><path fill="#f0a878" d="M220 94h5v5H220"/><path fill="#f0a878" d="M220 101h5v5H220"/><path fill="#f0a878" d="M220 108h5v5H220"/><path fill="#f0a878" d="M226 66h5v5H226"/><path fill="#f0a878" d="M226 73h5v5H226"/><path fill="#f0a878" d="M226 80h5v5H226"/><path fill="#dd7440" d="M226 87h5v5H226"/><path fill="#f0a878" d="M226 94h5v5H226"/><path fill="#f0a878" d="M226 101h5v5H226"/><path fill="#f0a878" d="M226 108h5v5H226"/><path fill="#f0a878" d="M232 66h5v5H232"/><path fill="#f0a878" d="M232 73h5v5H232"/><path fill="#f0a878" d="M232 80h5v5H232"/><path fill="#dd7440" d="M232 87h5v5H232"/><path fill="#f0a878" d="M232 94h5v5H232"/><path fill="#f0a878" d="M232 101h5v5H232"/><path fill="#f0a878" d="M232 108h5v5H232"/><path fill="#f0a878" d="M238 66h5v5H238"/><path fill="#f0a878" d="M238 73h5v5H238"/><path fill="#f0a878" d="M238 80h5v5H238"/><path fill="#f0a878" d="M238 87h5v5H238"/><path fill="#dd7440" d="M238 94h5v5H238"/><path fill="#f0a878" d="M238 101h5v5H238"/><path fill="#f0a878" d="M238 108h5v5H238"/><path fill="#f0a878" d="M244 66h5v5H244"/><path fill="#f0a878" d="M244 73h5v5H244"/><path fill="#dd7440" d="M244 80h5v5H244"/><path fill="#f0a878" d="M244 87h5v5H244"/><path fill="#dd7440" d="M244 94h5v5H244"/><path fill="#b84f1e" d="M244 101h5v5H244"/><path fill="#f0a878" d="M244 108h5v5H244"/><path fill="#f0a878" d="M250 66h5v5H250"/><path fill="#82300a" d="M250 73h5v5H250"/><path fill="#f0a878" d="M250 80h5v5H250"/><path fill="#f0a878" d="M250 87h5v5H250"/><path fill="#f0a878" d="M250 94h5v5H250"/><path fill="#f0a878" d="M250 101h5v5H250"/><path fill="#f0a878" d="M250 108h5v5H250"/><path fill="#f0a878" d="M256 66h5v5H256"/><path fill="#82300a" d="M256 73h5v5H256"/><path fill="#f0a878" d="M256 80h5v5H256"/><path fill="#dd7440" d="M256 87h5v5H256"/><path fill="#f0a878" d="M256 94h5v5H256"/><path fill="#f0a878" d="M256 101h5v5H256"/><path fill="#f0a878" d="M256 108h5v5H256"/><path fill="#dd7440" d="M262 66h5v5H262"/><path fill="#82300a" d="M262 73h5v5H262"/><path fill="#dd7440" d="M262 80h5v5H262"/><path fill="#f0a878" d="M262 87h5v5H262"/><path fill="#f0a878" d="M262 94h5v5H262"/><path fill="#f0a878" d="M262 101h5v5H262"/><path fill="#f0a878" d="M262 108h5v5H262"/><path fill="#f0a878" d="M268 66h5v5H268"/><path fill="#f0a878" d="M268 73h5v5H268"/><path fill="#f0a878" d="M268 80h5v5H268"/><path fill="#f0a878" d="M268 87h5v5H268"/><path fill="#f0a878" d="M268 94h5v5H268"/><path fill="#f0a878" d="M268 101h5v5H268"/><path fill="#f0a878" d="M268 108h5v5H268"/><path fill="#f0a878" d="M274 66h5v5H274"/><path fill="#82300a" d="M274 73h5v5H274"/><path fill="#f0a878" d="M274 80h5v5H274"/><path fill="#dd7440" d="M274 87h5v5H274"/><path fill="#dd7440" d="M274 94h5v5H274"/><path fill="#dd7440" d="M274 101h5v5H274"/><path fill="#f0a878" d="M274 108h5v5H274"/><path fill="#f0a878" d="M280 66h5v5H280"/><path fill="#f0a878" d="M280 73h5v5H280"/><path fill="#f0a878" d="M280 80h5v5H280"/><path fill="#f0a878" d="M280 87h5v5H280"/><path fill="#f0a878" d="M280 94h5v5H280"/><path fill="#f0a878" d="M280 101h5v5H280"/><path fill="#f0a878" d="M280 108h5v5H280"/><path fill="#f0a878" d="M286 66h5v5H286"/><path fill="#f0a878" d="M286 73h5v5H286"/><path fill="#f0a878" d="M286 80h5v5H286"/><path fill="#f0a878" d="M286 87h5v5H286"/><path fill="#f0a878" d="M286 94h5v5H286"/><path fill="#f0a878" d="M286 101h5v5H286"/><path fill="#f0a878" d="M286 108h5v5H286"/><path fill="#f0a878" d="M292 66h5v5H292"/><path fill="#f0a878" d="M292 73h5v5H292"/><path fill="#f0a878" d="M292 80h5v5H292"/><path fill="#f0a878" d="M292 87h5v5H292"/><path fill="#f0a878" d="M292 94h5v5H292"/><path fill="#f0a878" d="M292 101h5v5H292"/><path fill="#f0a878" d="M292 108h5v5H292"/><path fill="#f0a878" d="M298 66h5v5H298"/><path fill="#f0a878" d="M298 73h5v5H298"/><path fill="#f0a878" d="M298 80h5v5H298"/><path fill="#f0a878" d="M298 87h5v5H298"/><path fill="#f0a878" d="M298 94h5v5H298"/><path fill="#f0a878" d="M298 101h5v5H298"/><path fill="#f0a878" d="M298 108h5v5H298"/><path fill="#f0a878" d="M304 66h5v5H304"/><path fill="#f0a878" d="M304 73h5v5H304"/><path fill="#f0a878" d="M304 80h5v5H304"/><path fill="#f0a878" d="M304 87h5v5H304"/><path fill="#f0a878" d="M304 94h5v5H304"/><path fill="#f0a878" d="M304 101h5v5H304"/><path fill="#f0a878" d="M304 108h5v5H304"/><path fill="#f0a878" d="M310 66h5v5H310"/><path fill="#f0a878" d="M310 73h5v5H310"/><path fill="#f0a878" d="M310 80h5v5H310"/><path fill="#f0a878" d="M310 87h5v5H310"/><path fill="#f0a878" d="M310 94h5v5H310"/><path fill="#f0a878" d="M310 101h5v5H310"/><path fill="#f0a878" d="M310 108h5v5H310"/><path fill="#f0a878" d="M316 66h5v5H316"/><path fill="#f0a878" d="M316 73h5v5H316"/><path fill="#f0a878" d="M316 80h5v5H316"/><path fill="#f0a878" d="M316 87h5v5H316"/><path fill="#f0a878" d="M316 94h5v5H316"/><path fill="#f0a878" d="M316 101h5v5H316"/><path fill="#f0a878" d="M316 108h5v5H316"/><path fill="#f0a878" d="M322 66h5v5H322"/><path fill="#f0a878" d="M322 73h5v5H322"/><path fill="#f0a878" d="M322 80h5v5H322"/><path fill="#f0a878" d="M322 87h5v5H322"/><path fill="#f0a878" d="M322 94h5v5H322"/><path fill="#f0a878" d="M322 101h5v5H322"/><path fill="#f0a878" d="M322 108h5v5H322"/><path fill="#f0a878" d="M328 66h5v5H328"/><path fill="#f0a878" d="M328 73h5v5H328"/><path fill="#f0a878" d="M328 80h5v5H328"/><path fill="#f0a878" d="M328 87h5v5H328"/><path fill="#f0a878" d="M328 94h5v5H328"/><path fill="#f0a878" d="M328 101h5v5H328"/><path fill="#f0a878" d="M328 108h5v5H328"/><path fill="#f0a878" d="M334 66h5v5H334"/><path fill="#f0a878" d="M334 73h5v5H334"/><path fill="#f0a878" d="M334 80h5v5H334"/><path fill="#f0a878" d="M334 87h5v5H334"/><path fill="#f0a878" d="M334 94h5v5H334"/><path fill="#f0a878" d="M334 101h5v5H334"/><path fill="#f0a878" d="M334 108h5v5H334"/><path fill="#f0a878" d="M340 66h5v5H340"/><path fill="#f0a878" d="M340 73h5v5H340"/><path fill="#f0a878" d="M340 80h5v5H340"/><path fill="#f0a878" d="M340 87h5v5H340"/><path fill="#f0a878" d="M340 94h5v5H340"/><path fill="#f0a878" d="M340 101h5v5H340"/><path fill="#f0a878" d="M340 108h5v5H340"/><path fill="#f0a878" d="M346 66h5v5H346"/><path fill="#f0a878" d="M346 73h5v5H346"/><path fill="#f0a878" d="M346 80h5v5H346"/><path fill="#f0a878" d="M346 87h5v5H346"/><path fill="#f0a878" d="M346 94h5v5H346"/><path fill="#f0a878" d="M346 101h5v5H346"/><path fill="#f0a878" d="M346 108h5v5H346"/><path fill="#f0a878" d="M352 66h5v5H352"/><path fill="#f0a878" d="M352 73h5v5H352"/><path fill="#f0a878" d="M352 80h5v5H352"/><path fill="#f0a878" d="M352 87h5v5H352"/><path fill="#f0a878" d="M352 94h5v5H352"/><path fill="#f0a878" d="M352 101h5v5H352"/><path fill="#f0a878" d="M352 108h5v5H352"/><path fill="#f0a878" d="M358 66h5v5H358"/><path fill="#f0a878" d="M358 73h5v5H358"/><path fill="#f0a878" d="M358 80h5v5H358"/><path fill="#f0a878" d="M358 87h5v5H358"/><path fill="#f0a878" d="M358 94h5v5H358"/><path fill="#f0a878" d="M358 101h5v5H358"/><path fill="#f0a878" d="M358 108h5v5H358"/><path fill="#f0a878" d="M364 66h5v5H364"/><path fill="#f0a878" d="M364 73h5v5H364"/><path fill="#f0a878" d="M364 80h5v5H364"/><path fill="#f0a878" d="M364 87h5v5H364"/><path fill="#f0a878" d="M364 94h5v5H364"/><path fill="#f0a878" d="M364 101h5v5H364"/><path fill="#f0a878" d="M364 108h5v5H364"/><path fill="#f0a878" d="M370 66h5v5H370"/><path fill="#f0a878" d="M370 73h5v5H370"/><path fill="#f0a878" d="M370 80h5v5H370"/><path fill="#f0a878" d="M370 87h5v5H370"/><path fill="#f0a878" d="M370 94h5v5H370"/><path fill="#f0a878" d="M370 101h5v5H370"/><path fill="#f0a878" d="M370 108h5v5H370"/><path fill="#f0a878" d="M376 66h5v5H376"/><path fill="#f0a878" d="M376 73h5v5H376"/><path fill="#f0a878" d="M376 80h5v5H376"/><path fill="#b84f1e" d="M376 87h5v5H376"/><path fill="#f0a878" d="M376 94h5v5H376"/><path fill="#f0a878" d="M376 101h5v5H376"/><path fill="#f0a878" d="M376 108h5v5H376"/><path fill="#f0a878" d="M382 66h5v5H382"/><path fill="#82300a" d="M382 73h5v5H382"/><path fill="#82300a" d="M382 80h5v5H382"/><path fill="#82300a" d="M382 87h5v5H382"/><path fill="#f0a878" d="M382 94h5v5H382"/><path fill="#f0a878" d="M382 101h5v5H382"/><path fill="#f0a878" d="M382 108h5v5H382"/><path fill="#f0a878" d="M388 66h5v5H388"/><path fill="#f0a878" d="M388 73h5v5H388"/><path fill="#82300a" d="M388 80h5v5H388"/><path fill="#82300a" d="M388 87h5v5H388"/><path fill="#f0a878" d="M388 94h5v5H388"/><path fill="#f0a878" d="M388 101h5v5H388"/><path fill="#f0a878" d="M388 108h5v5H388"/><path fill="#f0a878" d="M394 66h5v5H394"/><path fill="#f0a878" d="M394 73h5v5H394"/><path fill="#f0a878" d="M394 80h5v5H394"/><path fill="#f0a878" d="M394 87h5v5H394"/><path fill="#f0a878" d="M394 94h5v5H394"/><path fill="#f0a878" d="M394 101h5v5H394"/><path fill="#f0a878" d="M394 108h5v5H394"/><path fill="#f0a878" d="M400 66h5v5H400"/><path fill="#f0a878" d="M400 73h5v5H400"/><path fill="#f0a878" d="M400 80h5v5H400"/><path fill="#f0a878" d="M400 87h5v5H400"/><path fill="#f0a878" d="M400 94h5v5H400"/><path fill="#f0a878" d="M400 101h5v5H400"/><path fill="#f0a878" d="M400 108h5v5H400"/><path fill="#f0a878" d="M406 66h5v5H406"/><path fill="#f0a878" d="M406 73h5v5H406"/><path fill="#f0a878" d="M406 80h5v5H406"/><path fill="#f0a878" d="M406 87h5v5H406"/><path fill="#f0a878" d="M406 94h5v5H406"/><path fill="#f0a878" d="M406 101h5v5H406"/><path fill="#f0a878" d="M406 108h5v5H406"/><path fill="#f0a878" d="M412 66h5v5H412"/><path fill="#f0a878" d="M412 73h5v5H412"/><path fill="#f0a878" d="M412 80h5v5H412"/><path fill="#f0a878" d="M412 87h5v5H412"/><path fill="#f0a878" d="M412 94h5v5H412"/><path fill="#f0a878" d="M412 101h5v5H412"/><path fill="#f0a878" d="M412 108h5v5H412"/><path fill="#f0a878" d="M418 66h5v5H418"/><path fill="#f0a878" d="M418 73h5v5H418"/><path fill="#f0a878" d="M418 80h5v5H418"/><path fill="#f0a878" d="M418 87h5v5H418"/><path fill="#f0a878" d="M418 94h5v5H418"/><path fill="#f0a878" d="M418 101h5v5H418"/><path fill="#f0a878" d="M418 108h5v5H418"/><path fill="#f0a878" d="M424 66h5v5H424"/><path fill="#f0a878" d="M424 73h5v5H424"/><path fill="#f0a878" d="M424 80h5v5H424"/><path fill="#f0a878" d="M424 87h5v5H424"/><path fill="#f0a878" d="M424 94h5v5H424"/><path fill="#f0a878" d="M424 101h5v5H424"/><path fill="#f0a878" d="M424 108h5v5H424"/><path fill="#f0a878" d="M430 66h5v5H430"/><path fill="#f0a878" d="M430 73h5v5H430"/><path fill="#f0a878" d="M430 80h5v5H430"/><path fill="#f0a878" d="M430 87h5v5H430"/><path fill="#f0a878" d="M430 94h5v5H430"/><path fill="#f0a878" d="M430 101h5v5H430"/><path fill="#f0a878" d="M430 108h5v5H430"/><path fill="#f0a878" d="M436 66h5v5H436"/><path fill="#f0a878" d="M436 73h5v5H436"/><path fill="#f0a878" d="M436 80h5v5H436"/><path fill="#f0a878" d="M436 87h5v5H436"/><path fill="#f0a878" d="M436 94h5v5H436"/><path fill="#f0a878" d="M436 101h5v5H436"/><path fill="#f0a878" d="M436 108h5v5H436"/><path fill="#f0a878" d="M442 66h5v5H442"/><path fill="#f0a878" d="M442 73h5v5H442"/><path fill="#f0a878" d="M442 80h5v5H442"/><path fill="#f0a878" d="M442 87h5v5H442"/><path fill="#f0a878" d="M442 94h5v5H442"/><path fill="#f0a878" d="M442 101h5v5H442"/><path fill="#f0a878" d="M442 108h5v5H442"/><path fill="#f0a878" d="M448 66h5v5H448"/><path fill="#f0a878" d="M448 73h5v5H448"/><path fill="#f0a878" d="M448 80h5v5H448"/><path fill="#f0a878" d="M448 87h5v5H448"/><path fill="#f0a878" d="M448 94h5v5H448"/><path fill="#f0a878" d="M448 101h5v5H448"/><path fill="#f0a878" d="M448 108h5v5H448"/><path fill="#f0a878" d="M454 66h5v5H454"/><path fill="#f0a878" d="M454 73h5v5H454"/><path fill="#f0a878" d="M454 80h5v5H454"/><path fill="#f0a878" d="M454 87h5v5H454"/><path fill="#f0a878" d="M454 94h5v5H454"/><path fill="#f0a878" d="M454 101h5v5H454"/><path fill="#f0a878" d="M454 108h5v5H454"/><path fill="#f0a878" d="M460 66h5v5H460"/><path fill="#f0a878" d="M460 73h5v5H460"/><path fill="#f0a878" d="M460 80h5v5H460"/><path fill="#f0a878" d="M460 87h5v5H460"/><path fill="#dd7440" d="M460 94h5v5H460"/><path fill="#f0a878" d="M460 101h5v5H460"/><path fill="#f0a878" d="M460 108h5v5H460"/><path fill="#f0a878" d="M466 66h5v5H466"/><path fill="#f0a878" d="M466 73h5v5H466"/><path fill="#f0a878" d="M466 80h5v5H466"/><path fill="#f0a878" d="M466 87h5v5H466"/><path fill="#f0a878" d="M466 94h5v5H466"/><path fill="#f0a878" d="M466 101h5v5H466"/><path fill="#f0a878" d="M466 108h5v5H466"/><path fill="#f0a878" d="M472 66h5v5H472"/><path fill="#f0a878" d="M472 73h5v5H472"/><path fill="#f0a878" d="M472 80h5v5H472"/><path fill="#f0a878" d="M472 87h5v5H472"/><path fill="#f0a878" d="M472 94h5v5H472"/><path fill="#f0a878" d="M472 101h5v5H472"/><path fill="#f0a878" d="M472 108h5v5H472"/><path fill="#f0a878" d="M478 66h5v5H478"/><path fill="#f0a878" d="M478 73h5v5H478"/><path fill="#f0a878" d="M478 80h5v5H478"/><path fill="#f0a878" d="M478 87h5v5H478"/><path fill="#f0a878" d="M478 94h5v5H478"/><path fill="#f0a878" d="M478 101h5v5H478"/><path fill="#f0a878" d="M478 108h5v5H478"/><path fill="#f0a878" d="M484 66h5v5H484"/><path fill="#f0a878" d="M484 73h5v5H484"/><path fill="#f0a878" d="M484 80h5v5H484"/><path fill="#f0a878" d="M484 87h5v5H484"/><path fill="#f0a878" d="M484 94h5v5H484"/><path fill="#f0a878" d="M484 101h5v5H484"/><path fill="#f0a878" d="M484 108h5v5H484"/><path fill="#f0a878" d="M490 66h5v5H490"/><path fill="#f0a878" d="M490 73h5v5H490"/><path fill="#f0a878" d="M490 80h5v5H490"/><path fill="#f0a878" d="M490 87h5v5H490"/><path fill="#f0a878" d="M490 94h5v5H490"/><path fill="#f0a878" d="M490 101h5v5H490"/><path fill="#f0a878" d="M490 108h5v5H490"/><path fill="#f0a878" d="M496 66h5v5H496"/><path fill="#f0a878" d="M496 73h5v5H496"/><path fill="#f0a878" d="M496 80h5v5H496"/><path fill="#f0a878" d="M496 87h5v5H496"/><path fill="#f0a878" d="M496 94h5v5H496"/><path fill="#f0a878" d="M496 101h5v5H496"/><path fill="#dd7440" d="M496 108h5v5H496"/><path fill="#b84f1e" d="M502 66h5v5H502"/><path fill="#f0a878" d="M502 73h5v5H502"/><path fill="#f0a878" d="M502 80h5v5H502"/><path fill="#f0a878" d="M502 87h5v5H502"/><path fill="#f0a878" d="M502 94h5v5H502"/><path fill="#dd7440" d="M502 101h5v5H502"/><path fill="#dd7440" d="M502 108h5v5H502"/><path fill="#f0a878" d="M508 66h5v5H508"/><path fill="#f0a878" d="M508 73h5v5H508"/><path fill="#f0a878" d="M508 80h5v5H508"/><path fill="#f0a878" d="M508 87h5v5H508"/><path fill="#dd7440" d="M508 94h5v5H508"/><path fill="#f0a878" d="M508 101h5v5H508"/><path fill="#f0a878" d="M508 108h5v5H508"/><path fill="#f0a878" d="M514 66h5v5H514"/><path fill="#f0a878" d="M514 73h5v5H514"/><path fill="#f0a878" d="M514 80h5v5H514"/><path fill="#f0a878" d="M514 87h5v5H514"/><path fill="#dd7440" d="M514 94h5v5H514"/><path fill="#f0a878" d="M514 101h5v5H514"/><path fill="#f0a878" d="M514 108h5v5H514"/><path fill="#f0a878" d="M520 66h5v5H520"/><path fill="#f0a878" d="M520 73h5v5H520"/><path fill="#f0a878" d="M520 80h5v5H520"/><path fill="#f0a878" d="M520 87h5v5H520"/><path fill="#f0a878" d="M520 94h5v5H520"/><path fill="#f0a878" d="M520 101h5v5H520"/><path fill="#b84f1e" d="M520 108h5v5H520"/><path fill="#f0a878" d="M526 66h5v5H526"/><path fill="#f0a878" d="M526 73h5v5H526"/><path fill="#f0a878" d="M526 80h5v5H526"/><path fill="#f0a878" d="M526 87h5v5H526"/><path fill="#f0a878" d="M526 94h5v5H526"/><path fill="#f0a878" d="M526 101h5v5H526"/><path fill="#f0a878" d="M526 108h5v5H526"/><path fill="#f0a878" d="M532 66h5v5H532"/><path fill="#f0a878" d="M532 73h5v5H532"/><path fill="#f0a878" d="M532 80h5v5H532"/><path fill="#f0a878" d="M532 87h5v5H532"/><path fill="#f0a878" d="M532 94h5v5H532"/><path fill="#f0a878" d="M532 101h5v5H532"/><path fill="#f0a878" d="M532 108h5v5H532"/><path fill="#f0a878" d="M538 66h5v5H538"/><path fill="#f0a878" d="M538 73h5v5H538"/><path fill="#f0a878" d="M538 80h5v5H538"/><path fill="#f0a878" d="M538 87h5v5H538"/><path fill="#f0a878" d="M538 94h5v5H538"/><path fill="#f0a878" d="M538 101h5v5H538"/><path fill="#82300a" d="M538 108h5v5H538"/><path fill="#f0a878" d="M544 66h5v5H544"/><path fill="#f0a878" d="M544 73h5v5H544"/><path fill="#f0a878" d="M544 80h5v5H544"/><path fill="#f0a878" d="M544 87h5v5H544"/><path fill="#f0a878" d="M544 94h5v5H544"/><path fill="#f0a878" d="M544 101h5v5H544"/><path fill="#dd7440" d="M544 108h5v5H544"/><path fill="#f0a878" d="M550 66h5v5H550"/><path fill="#f0a878" d="M550 73h5v5H550"/><path fill="#f0a878" d="M550 80h5v5H550"/><path fill="#f0a878" d="M550 87h5v5H550"/><path fill="#f0a878" d="M550 94h5v5H550"/><path fill="#dd7440" d="M550 101h5v5H550"/><path fill="#f0a878" d="M550 108h5v5H550"/><path fill="#f0a878" d="M556 66h5v5H556"/><path fill="#f0a878" d="M556 73h5v5H556"/><path fill="#f0a878" d="M556 80h5v5H556"/><path fill="#f0a878" d="M556 87h5v5H556"/><path fill="#f0a878" d="M556 94h5v5H556"/><path fill="#dd7440" d="M556 101h5v5H556"/><path fill="#f0a878" d="M556 108h5v5H556"/><path fill="#f0a878" d="M562 66h5v5H562"/><path fill="#f0a878" d="M562 73h5v5H562"/><path fill="#f0a878" d="M562 80h5v5H562"/><path fill="#f0a878" d="M562 87h5v5H562"/><path fill="#f0a878" d="M562 94h5v5H562"/><path fill="#f0a878" d="M562 101h5v5H562"/><path fill="#f0a878" d="M562 108h5v5H562"/><path fill="#f0a878" d="M568 66h5v5H568"/><path fill="#f0a878" d="M568 73h5v5H568"/><path fill="#f0a878" d="M568 80h5v5H568"/><path fill="#f0a878" d="M568 87h5v5H568"/><path fill="#f0a878" d="M568 94h5v5H568"/><path fill="#f0a878" d="M568 101h5v5H568"/><path fill="#dd7440" d="M568 108h5v5H568"/><path fill="#f0a878" d="M574 66h5v5H574"/><path fill="#f0a878" d="M574 73h5v5H574"/><path fill="#f0a878" d="M574 80h5v5H574"/><path fill="#f0a878" d="M574 87h5v5H574"/><path fill="#f0a878" d="M574 94h5v5H574"/><path fill="#f0a878" d="M574 101h5v5H574"/><path fill="#dd7440" d="M574 108h5v5H574"/><path fill="#f0a878" d="M580 66h5v5H580"/><path fill="#f0a878" d="M580 73h5v5H580"/><path fill="#f0a878" d="M580 80h5v5H580"/><path fill="#f0a878" d="M580 87h5v5H580"/><path fill="#f0a878" d="M580 94h5v5H580"/><path fill="#f0a878" d="M580 101h5v5H580"/><path fill="#f0a878" d="M580 108h5v5H580"/><path fill="#f0a878" d="M586 66h5v5H586"/><path fill="#f0a878" d="M586 73h5v5H586"/><path fill="#f0a878" d="M586 80h5v5H586"/><path fill="#f0a878" d="M586 87h5v5H586"/><path fill="#f0a878" d="M586 94h5v5H586"/><path fill="#f0a878" d="M586 101h5v5H586"/><path fill="#f0a878" d="M586 108h5v5H586"/><path fill="#f0a878" d="M592 66h5v5H592"/><path fill="#dd7440" d="M592 73h5v5H592"/><path fill="#f0a878" d="M592 80h5v5H592"/><path fill="#f0a878" d="M592 87h5v5H592"/><path fill="#f0a878" d="M592 94h5v5H592"/><path fill="#dd7440" d="M592 101h5v5H592"/><path fill="#f0a878" d="M592 108h5v5H592"/><path fill="#f0a878" d="M598 66h5v5H598"/><path fill="#f0a878" d="M598 73h5v5H598"/><path fill="#f0a878" d="M598 80h5v5H598"/><path fill="#f0a878" d="M598 87h5v5H598"/><path fill="#f0a878" d="M598 94h5v5H598"/><path fill="#dd7440" d="M598 101h5v5H598"/><path fill="#b84f1e" d="M598 108h5v5H598"/><path fill="#f0a878" d="M604 66h5v5H604"/><path fill="#dd7440" d="M604 73h5v5H604"/><path fill="#f0a878" d="M604 80h5v5H604"/><path fill="#f0a878" d="M604 87h5v5H604"/><path fill="#f0a878" d="M604 94h5v5H604"/><path fill="#f0a878" d="M604 101h5v5H604"/><path fill="#f0a878" d="M604 108h5v5H604"/><path fill="#dd7440" d="M610 66h5v5H610"/><path fill="#f0a878" d="M610 73h5v5H610"/><path fill="#dd7440" d="M610 80h5v5H610"/><path fill="#f0a878" d="M610 87h5v5H610"/><path fill="#f0a878" d="M610 94h5v5H610"/><path fill="#dd7440" d="M610 101h5v5H610"/><path fill="#f0a878" d="M610 108h5v5H610"/><path fill="#dd7440" d="M616 66h5v5H616"/><path fill="#f0a878" d="M616 73h5v5H616"/><path fill="#f0a878" d="M616 80h5v5H616"/><path fill="#dd7440" d="M616 87h5v5H616"/><path fill="#f0a878" d="M616 94h5v5H616"/><path fill="#f0a878" d="M616 101h5v5H616"/><path fill="#f0a878" d="M616 108h5v5H616"/><path fill="#f0a878" d="M622 66h5v5H622"/><path fill="#f0a878" d="M622 73h5v5H622"/><path fill="#dd7440" d="M622 80h5v5H622"/><path fill="#dd7440" d="M622 87h5v5H622"/><path fill="#dd7440" d="M622 94h5v5H622"/><path fill="#f0a878" d="M622 101h5v5H622"/><path fill="#f0a878" d="M622 108h5v5H622"/><path fill="#f0a878" d="M628 66h5v5H628"/><path fill="#dd7440" d="M628 73h5v5H628"/><path fill="#f0a878" d="M628 80h5v5H628"/><path fill="#f0a878" d="M628 87h5v5H628"/><path fill="#dd7440" d="M628 94h5v5H628"/><path fill="#dd7440" d="M628 101h5v5H628"/><path fill="#dd7440" d="M628 108h5v5H628"/><path fill="#b84f1e" d="M634 66h5v5H634"/><path fill="#f0a878" d="M634 73h5v5H634"/><path fill="#f0a878" d="M634 80h5v5H634"/><path fill="#dd7440" d="M634 87h5v5H634"/><path fill="#dd7440" d="M634 94h5v5H634"/><path fill="#b84f1e" d="M634 101h5v5H634"/><path fill="#b84f1e" d="M634 108h5v5H634"/><path fill="#f0a878" d="M640 66h5v5H640"/><path fill="#f0a878" d="M640 73h5v5H640"/><path fill="#dd7440" d="M640 80h5v5H640"/><path fill="#dd7440" d="M640 87h5v5H640"/><path fill="#82300a" d="M640 94h5v5H640"/><path fill="#dd7440" d="M640 101h5v5H640"/><path fill="#b84f1e" d="M640 108h5v5H640"/><path fill="#dd7440" d="M646 66h5v5H646"/><path fill="#b84f1e" d="M646 73h5v5H646"/><path fill="#dd7440" d="M646 80h5v5H646"/><path fill="#b84f1e" d="M646 87h5v5H646"/><path fill="#82300a" d="M646 94h5v5H646"/><path fill="#82300a" d="M646 101h5v5H646"/><path fill="#dd7440" d="M646 108h5v5H646"/><path fill="#b84f1e" d="M652 66h5v5H652"/><path fill="#82300a" d="M652 73h5v5H652"/><path fill="#82300a" d="M652 80h5v5H652"/><path fill="#82300a" d="M652 87h5v5H652"/><path fill="#b84f1e" d="M652 94h5v5H652"/><path fill="#82300a" d="M652 101h5v5H652"/><path fill="#b84f1e" d="M652 108h5v5H652"/><path fill="#82300a" d="M658 66h5v5H658"/><path fill="#82300a" d="M658 73h5v5H658"/><path fill="#82300a" d="M658 80h5v5H658"/><path fill="#b84f1e" d="M658 87h5v5H658"/><path fill="#82300a" d="M658 94h5v5H658"/><path fill="#82300a" d="M658 101h5v5H658"/><path fill="#82300a" d="M658 108h5v5H658"/><path fill="#b84f1e" d="M664 66h5v5H664"/><path fill="#dd7440" d="M664 73h5v5H664"/><path fill="#b84f1e" d="M664 80h5v5H664"/><path fill="#dd7440" d="M664 87h5v5H664"/><path fill="#82300a" d="M664 94h5v5H664"/><path fill="#dd7440" d="M664 101h5v5H664"/><path fill="#dd7440" d="M664 108h5v5H664"/></g><g aria-hidden="true"><text x="602" y="133" fill="#5b6150" font-family="ui-monospace,SFMono-Regular,'SF Mono',Menlo,Consolas,monospace" font-size="10" font-weight="500" letter-spacing="1.30" text-anchor="end">LESS</text><rect x="608" y="125" width="8" height="8" fill="#c9cfb2"/><rect x="619" y="125" width="8" height="8" fill="#f0a878"/><rect x="630" y="125" width="8" height="8" fill="#dd7440"/><rect x="641" y="125" width="8" height="8" fill="#b84f1e"/><rect x="652" y="125" width="8" height="8" fill="#82300a"/><text x="669" y="133" fill="#5b6150" font-family="ui-monospace,SFMono-Regular,'SF Mono',Menlo,Consolas,monospace" font-size="10" font-weight="500" letter-spacing="1.30" text-anchor="start">MORE</text></g></g></svg>