<svg xmlns="http://www.w3.org/2000/svg" role="img" aria-label="Weekly cadence" viewBox="0 0 720 224" width="720" height="224" fill="none"><title>Weekly cadence</title><desc>Contribution share by day of week for the returned window, on UTC day boundaries. Monday 10.1%, Tuesday 8.9%, Wednesday 10.9%, Thursday 15.8%, Friday 17.6%, Saturday 23.2%, Sunday 13.5%.</desc><path d="M0 0H698L720 22V224H0Z" fill="#dfe4c9"/><g aria-hidden="true" opacity="0.18"><path d="M0 -8l4 0l-4 11l0 -11Z" fill="#55651a"/><path d="M0 3l4 0l-4 11l0 -11Z" fill="#55651a"/><path d="M0 14l4 0l-4 11l0 -11Z" fill="#55651a"/><path d="M0 25l4 0l-4 11l0 -11Z" fill="#55651a"/><path d="M0 36l4 0l-4 11l0 -11Z" fill="#55651a"/><path d="M0 47l4 0l-4 11l0 -11Z" fill="#55651a"/><path d="M0 58l4 0l-4 11l0 -11Z" fill="#55651a"/><path d="M0 69l4 0l-4 11l0 -11Z" fill="#55651a"/><path d="M0 80l4 0l-4 11l0 -11Z" fill="#55651a"/><path d="M0 91l4 0l-4 11l0 -11Z" fill="#55651a"/><path d="M0 102l4 0l-4 11l0 -11Z" fill="#55651a"/><path d="M0 113l4 0l-4 11l0 -11Z" fill="#55651a"/><path d="M0 124l4 0l-4 11l0 -11Z" fill="#55651a"/><path d="M0 135l4 0l-4 11l0 -11Z" fill="#55651a"/><path d="M0 146l4 0l-4 11l0 -11Z" fill="#55651a"/><path d="M0 157l4 0l-4 11l0 -11Z" fill="#55651a"/><path d="M0 168l4 0l-4 11l0 -11Z" fill="#55651a"/><path d="M0 179l4 0l-4 11l0 -11Z" fill="#55651a"/><path d="M0 190l4 0l-4 11l0 -11Z" fill="#55651a"/><path d="M0 201l4 0l-4 11l0 -11Z" fill="#55651a"/><path d="M0 212l4 0l-4 11l0 -11Z" fill="#55651a"/><path d="M0 223l4 0l-4 11l0 -11Z" fill="#55651a"/></g><style>
@keyframes card-enter{from{transform:translateY(4px)}to{transform:translateY(0)}}
.card-enter{transform-box:fill-box;transform-origin:center;animation:card-enter .38s ease-out .06s}
@media (prefers-reduced-motion:reduce){.card-enter{animation:none!important}}
</style><g class="card-enter"><rect x="16" y="16" width="688" height="192" rx="14" fill="#e8ecd6" stroke="#c2c9a8"/><text x="34" y="48" fill="#55651a" font-family="ui-monospace,SFMono-Regular,'SF Mono',Menlo,Consolas,monospace" font-size="10" font-weight="500" letter-spacing="1.30" text-anchor="start">01 // WEEKLY CADENCE</text><text x="686" y="50" fill="#23261c" font-family="ui-sans-serif,system-ui,-apple-system,'Segoe UI',Helvetica,Arial,sans-serif" font-size="12" font-weight="600" text-anchor="end">Saturday carries 23.2%</text><rect x="34.00" y="125.28" width="81.14" height="36.72" rx="3" fill="#cdd3b6"/><text x="74.57142857142857" y="118.28042578356002" fill="#5b6150" font-family="ui-monospace,SFMono-Regular,'SF Mono',Menlo,Consolas,monospace" font-size="10" font-weight="550" letter-spacing="0.40" text-anchor="middle">10.1%</text><text x="74.57142857142857" y="178" fill="#5b6150" font-family="ui-monospace,SFMono-Regular,'SF Mono',Menlo,Consolas,monospace" font-size="10" font-weight="550" letter-spacing="1.30" text-anchor="middle">MON</text><rect x="129.14" y="129.93" width="81.14" height="32.07" rx="3" fill="#cdd3b6"/><text x="169.71428571428572" y="122.92998225901832" fill="#5b6150" font-family="ui-monospace,SFMono-Regular,'SF Mono',Menlo,Consolas,monospace" font-size="10" font-weight="550" letter-spacing="0.40" text-anchor="middle">8.9%</text><text x="169.71428571428572" y="178" fill="#5b6150" font-family="ui-monospace,SFMono-Regular,'SF Mono',Menlo,Consolas,monospace" font-size="10" font-weight="550" letter-spacing="1.30" text-anchor="middle">TUE</text><rect x="224.29" y="122.70" width="81.14" height="39.30" rx="3" fill="#cdd3b6"/><text x="264.85714285714283" y="115.69733885274985" fill="#5b6150" font-family="ui-monospace,SFMono-Regular,'SF Mono',Menlo,Consolas,monospace" font-size="10" font-weight="550" letter-spacing="0.40" text-anchor="middle">10.9%</text><text x="264.85714285714283" y="178" fill="#5b6150" font-family="ui-monospace,SFMono-Regular,'SF Mono',Menlo,Consolas,monospace" font-size="10" font-weight="550" letter-spacing="1.30" text-anchor="middle">WED</text><rect x="319.43" y="104.69" width="81.14" height="57.31" rx="3" fill="#cdd3b6"/><text x="360" y="97.68527498521584" fill="#5b6150" font-family="ui-monospace,SFMono-Regular,'SF Mono',Menlo,Consolas,monospace" font-size="10" font-weight="550" letter-spacing="0.40" text-anchor="middle">15.8%</text><text x="360" y="178" fill="#5b6150" font-family="ui-monospace,SFMono-Regular,'SF Mono',Menlo,Consolas,monospace" font-size="10" font-weight="550" letter-spacing="1.30" text-anchor="middle">THU</text><rect x="414.57" y="98.37" width="81.14" height="63.63" rx="3" fill="#cdd3b6"/><text x="455.1428571428571" y="91.36664695446481" fill="#5b6150" font-family="ui-monospace,SFMono-Regular,'SF Mono',Menlo,Consolas,monospace" font-size="10" font-weight="550" letter-spacing="0.40" text-anchor="middle">17.6%</text><text x="455.1428571428571" y="178" fill="#5b6150" font-family="ui-monospace,SFMono-Regular,'SF Mono',Menlo,Consolas,monospace" font-size="10" font-weight="550" letter-spacing="1.30" text-anchor="middle">FRI</text><rect x="509.71" y="78.00" width="81.14" height="84.00" rx="3" fill="#9c3d0d"/><text x="550.2857142857142" y="71" fill="#23261c" font-family="ui-monospace,SFMono-Regular,'SF Mono',Menlo,Consolas,monospace" font-size="10" font-weight="550" letter-spacing="0.40" text-anchor="middle">23.2%</text><text x="550.2857142857142" y="178" fill="#5b6150" font-family="ui-monospace,SFMono-Regular,'SF Mono',Menlo,Consolas,monospace" font-size="10" font-weight="550" letter-spacing="1.30" text-anchor="middle">SAT</text><rect x="604.86" y="112.96" width="81.14" height="49.04" rx="3" fill="#cdd3b6"/><text x="645.4285714285714" y="105.96108811354227" fill="#5b6150" font-family="ui-monospace,SFMono-Regular,'SF Mono',Menlo,Consolas,monospace" font-size="10" font-weight="550" letter-spacing="0.40" text-anchor="middle">13.5%</text><text x="645.4285714285714" y="178" fill="#5b6150" font-family="ui-monospace,SFMono-Regular,'SF Mono',Menlo,Consolas,monospace" font-size="10" font-weight="550" letter-spacing="1.30" text-anchor="middle">SUN</text><text x="34" y="198" fill="#5b6150" font-family="ui-monospace,SFMono-Regular,'SF Mono',Menlo,Consolas,monospace" font-size="9.5" font-weight="550" letter-spacing="0.76" text-anchor="start">SHARE OF 36k CONTRIBUTIONS · UTC DAY BOUNDARIES · WINDOW-SCOPED</text></g></svg>