<svg xmlns="http://www.w3.org/2000/svg" role="img" aria-label="Personal contribution rhythm" viewBox="0 0 720 220" width="720" height="220" fill="none"><title>Personal contribution rhythm</title><desc>A personal consistency summary based on active-day density and current streak. Personal consistency score 78 out of 100, strong; this is not a GitHub rank. 70% active-day density (capped at 80%) + 30% current streak (capped at 30 days). Density 55.1 percent across 201 active days in a 365-day window. Current streak: 38 days · CLOSED through 2026-08-28; it is closed within the returned window. 7,446 recent contributions · +83.6% vs prior 28 days.</desc><path d="M0 0H698L720 22V220H0Z" fill="#dfe4c9"/><g aria-hidden="true" opacity="0.18"><path d="M0 -8l4 0l-4 11l0 -11Z" fill="#55651a"/><path d="M0 3l4 0l-4 11l0 -11Z" fill="#55651a"/><path d="M0 14l4 0l-4 11l0 -11Z" fill="#55651a"/><path d="M0 25l4 0l-4 11l0 -11Z" fill="#55651a"/><path d="M0 36l4 0l-4 11l0 -11Z" fill="#55651a"/><path d="M0 47l4 0l-4 11l0 -11Z" fill="#55651a"/><path d="M0 58l4 0l-4 11l0 -11Z" fill="#55651a"/><path d="M0 69l4 0l-4 11l0 -11Z" fill="#55651a"/><path d="M0 80l4 0l-4 11l0 -11Z" fill="#55651a"/><path d="M0 91l4 0l-4 11l0 -11Z" fill="#55651a"/><path d="M0 102l4 0l-4 11l0 -11Z" fill="#55651a"/><path d="M0 113l4 0l-4 11l0 -11Z" fill="#55651a"/><path d="M0 124l4 0l-4 11l0 -11Z" fill="#55651a"/><path d="M0 135l4 0l-4 11l0 -11Z" fill="#55651a"/><path d="M0 146l4 0l-4 11l0 -11Z" fill="#55651a"/><path d="M0 157l4 0l-4 11l0 -11Z" fill="#55651a"/><path d="M0 168l4 0l-4 11l0 -11Z" fill="#55651a"/><path d="M0 179l4 0l-4 11l0 -11Z" fill="#55651a"/><path d="M0 190l4 0l-4 11l0 -11Z" fill="#55651a"/><path d="M0 201l4 0l-4 11l0 -11Z" fill="#55651a"/><path d="M0 212l4 0l-4 11l0 -11Z" fill="#55651a"/></g><style>
@keyframes card-enter{from{transform:translateY(4px)}to{transform:translateY(0)}}
.card-enter{transform-box:fill-box;transform-origin:center;animation:card-enter .38s ease-out .06s}
@media (prefers-reduced-motion:reduce){.card-enter{animation:none!important}}
</style><g class="card-enter"><rect x="16" y="16" width="688" height="188" rx="14" fill="#e8ecd6" stroke="#c2c9a8"/><text x="34" y="48" fill="#55651a" font-family="ui-monospace,SFMono-Regular,'SF Mono',Menlo,Consolas,monospace" font-size="10" font-weight="500" letter-spacing="1.30" text-anchor="start">01 // PERSONAL CONSISTENCY</text><circle cx="88" cy="112" r="43" stroke="#dfe4c9" stroke-width="10"/><circle cx="88" cy="112" r="43" stroke="#9c3d0d" stroke-width="10" stroke-linecap="round" stroke-dasharray="210.74 270.18" transform="rotate(-90 88 112)"/><text x="88" y="119" fill="#23261c" font-family="ui-sans-serif,system-ui,-apple-system,'Segoe UI',Helvetica,Arial,sans-serif" font-size="28" font-weight="800" text-anchor="middle">78</text><text x="88" y="136" fill="#5b6150" font-family="ui-sans-serif,system-ui,-apple-system,'Segoe UI',Helvetica,Arial,sans-serif" font-size="10" font-weight="650" text-anchor="middle">/ 100</text><text x="166" y="88" fill="#9c3d0d" font-family="ui-sans-serif,system-ui,-apple-system,'Segoe UI',Helvetica,Arial,sans-serif" font-size="11" font-weight="750" text-anchor="start">STRONG</text><text x="166" y="111" fill="#23261c" font-family="ui-sans-serif,system-ui,-apple-system,'Segoe UI',Helvetica,Arial,sans-serif" font-size="11" font-weight="600" text-anchor="start">55.1% density · 201 active days</text><text x="166" y="131" fill="#5b6150" font-family="ui-sans-serif,system-ui,-apple-system,'Segoe UI',Helvetica,Arial,sans-serif" font-size="10" font-weight="550" text-anchor="start">365-day window · current 38 days · CLOSED</text><text x="166" y="151" fill="#5b6150" font-family="ui-sans-serif,system-ui,-apple-system,'Segoe UI',Helvetica,Arial,sans-serif" font-size="10" font-weight="550" text-anchor="start">Streak is bounded to this window</text><line x1="370" y1="65" x2="692" y2="65" stroke="#c2c9a8"/><text x="400" y="76" fill="#5b6150" font-family="ui-sans-serif,system-ui,-apple-system,'Segoe UI',Helvetica,Arial,sans-serif" font-size="10" font-weight="700" text-anchor="start">WEEKLY RHYTHM</text><text x="400" y="93" fill="#23261c" font-family="ui-sans-serif,system-ui,-apple-system,'Segoe UI',Helvetica,Arial,sans-serif" font-size="10" font-weight="550" text-anchor="start">7,446 recent contributions · +83.6% vs prior 28 d…</text><rect x="400.00" y="158.56" width="20.17" height="7.44" rx="3" fill="#9c3d0d"/><rect x="424.17" y="148.19" width="20.17" height="17.81" rx="3" fill="#9c3d0d"/><rect x="448.33" y="142.92" width="20.17" height="23.08" rx="3" fill="#9c3d0d"/><rect x="472.50" y="151.08" width="20.17" height="14.92" rx="3" fill="#9c3d0d"/><rect x="496.67" y="163.00" width="20.17" height="3.00" rx="3" fill="#9c3d0d"/><rect x="520.83" y="138.37" width="20.17" height="27.63" rx="3" fill="#9c3d0d"/><rect x="545.00" y="150.57" width="20.17" height="15.43" rx="3" fill="#9c3d0d"/><rect x="569.17" y="118.00" width="20.17" height="48.00" rx="3" fill="#9c3d0d"/><rect x="593.33" y="123.64" width="20.17" height="42.36" rx="3" fill="#9c3d0d"/><rect x="617.50" y="126.66" width="20.17" height="39.34" rx="3" fill="#9c3d0d"/><rect x="641.67" y="119.69" width="20.17" height="46.31" rx="3" fill="#9c3d0d"/><rect x="665.83" y="122.02" width="20.17" height="43.98" rx="3" fill="#9c3d0d"/><text x="34" y="209" fill="#5b6150" font-family="ui-monospace,SFMono-Regular,'SF Mono',Menlo,Consolas,monospace" font-size="9.5" font-weight="500" letter-spacing="0.57" text-anchor="start">COMMITATLAS CONSISTENCY · NOT A GITHUB RANK</text></g></svg>